<svg width="32" height="32" viewBox="0 0 32 32" xmlns="http://www.w3.org/2000/svg">
<path d="M11.844 14.2826C12.0245 14.1783 12.1745 14.0284 12.2787 13.8478C12.3829 13.6672 12.4378 13.4624 12.4377 13.2539V2.56641C12.4367 2.37708 12.3903 2.19075 12.3026 2.02296C12.2149 1.85517 12.0884 1.71079 11.9335 1.60184C11.7787 1.4929 11.6001 1.42256 11.4125 1.39669C11.2249 1.37082 11.0339 1.39017 10.8554 1.45312C7.38932 2.67983 4.47452 5.10267 2.63493 8.2861C0.795343 11.4695 0.151632 15.2048 0.819514 18.8203C0.854133 19.0073 0.933143 19.1832 1.0499 19.3333C1.16665 19.4834 1.31774 19.6032 1.49045 19.6827C1.6461 19.7555 1.8159 19.793 1.98772 19.7926C2.19614 19.7927 2.40092 19.7379 2.58147 19.6337L11.844 14.2826ZM10.0627 4.36547V12.5681L2.95553 16.6695C2.93772 16.4453 2.93772 16.2197 2.93772 16C2.93982 13.5929 3.60612 11.233 4.86324 9.18025C6.12036 7.12747 7.91955 5.4614 10.0627 4.36547ZM31.4377 16C31.4389 19.389 30.3248 22.6842 28.2674 25.3773C26.2099 28.0703 23.3235 30.0115 20.0534 30.9013C16.7833 31.7911 13.3112 31.58 10.1729 30.3008C7.03461 29.0215 4.40449 26.745 2.68834 23.8227C2.60834 23.6877 2.55589 23.5382 2.53401 23.3828C2.51213 23.2274 2.52126 23.0692 2.56087 22.9174C2.60048 22.7656 2.66979 22.6231 2.7648 22.4982C2.8598 22.3734 2.97861 22.2685 3.11436 22.1898L14.8127 15.381V1.75C14.8127 1.43506 14.9378 1.13301 15.1605 0.910311C15.3832 0.687611 15.6853 0.5625 16.0002 0.5625C18.6942 0.563875 21.3409 1.26986 23.6777 2.61035C26.0144 3.95085 27.9599 5.87924 29.321 8.20406C29.3373 8.22781 29.3522 8.25156 29.367 8.2768C29.3819 8.30203 29.3967 8.33172 29.4101 8.35844C30.742 10.6847 31.4411 13.3194 31.4377 16Z" />
</svg>
